<?xml version="1.0" encoding="utf-8"?>
<svg version="1.1" id="Layer_1" xmlns="http://www.w3.org/2000/svg" xmlns:xlink="http://www.w3.org/1999/xlink" viewBox="0 0 120 120" xml:space="preserve">
<style type="text/css">
	.st0{fill:#E7E7E7;}
</style>
<path class="st0" d="M91.15,35.72c0,0-9.17-7.18-20-8l-0.98,1.95c9.8,2.4,14.28,5.83,18.98,10.05c-8.09-4.13-16.08-8-30-8
	s-21.91,3.87-30,8c4.69-4.22,10.04-8.03,18.98-10.05l-0.98-1.95c-11.36,1.07-20,8-20,8s-10.24,14.85-12,44c10.32,11.91,26,12,26,12
	l3.28-4.37c-6.68-2.29-12.65-6.3-17.28-11.63c6.48,4.9,16.25,10,32,10s25.52-5.1,32-10c-4.63,5.33-10.59,9.34-17.28,11.63l3.28,4.37
	c0,0,15.68-0.09,26-12C101.39,50.57,91.15,35.72,91.15,35.72z M46.15,71.72c-3.87,0-7-3.58-7-8s3.13-8,7-8s7,3.58,7,8
	S50.01,71.72,46.15,71.72z M72.15,71.72c-3.87,0-7-3.58-7-8s3.13-8,7-8s7,3.58,7,8S76.01,71.72,72.15,71.72z"/>
</svg>
