<?xml version="1.0" encoding="utf-8"?>
<!-- Generator: Adobe Illustrator 24.3.2, SVG Export Plug-In . SVG Version: 6.00 Build 0)  -->
<svg version="1.1" id="Layer_1" xmlns="http://www.w3.org/2000/svg" xmlns:xlink="http://www.w3.org/1999/xlink" x="0px" y="0px"
	 viewBox="0 0 120 120" style="enable-background:new 0 0 120 120;" xml:space="preserve">
<style type="text/css">
	.st0{fill-rule:evenodd;clip-rule:evenodd;fill:#E7E7E7;}
</style>
<path class="st0" d="M102.91,33.67c-3.21,1.38-6.6,2.3-10.07,2.74c3.66-2.18,6.45-5.52,7.75-9.6c-3.46,2.02-7.24,3.45-11.18,4.22
	c-3.16-3.39-7.75-5.46-12.85-5.46c-9.65,0-17.54,7.75-17.54,17.25c0.03,1.33,0.2,2.65,0.52,3.95c-14.07-0.63-27.22-7.19-36.18-18.05
	c-1.48,2.6-2.41,5.52-2.41,8.67c0.02,5.8,2.95,11.19,7.79,14.37c-2.78-0.05-5.5-0.79-7.93-2.13v0.23c-0.01,2.13,0.4,4.24,1.2,6.22
	c2.21,5.52,7.07,9.53,12.9,10.67c-1.51,0.43-3.07,0.64-4.64,0.65c-1.11-0.01-2.21-0.13-3.3-0.37c2.37,7.07,8.92,11.89,16.38,12.06
	c-6.23,4.8-13.89,7.4-21.76,7.38c-1.44,0-2.78-0.09-4.22-0.23c8.06,5.06,17.39,7.74,26.9,7.75c27.41,0,44.35-18.97,48.75-38.69
	c0.77-3.43,1.16-6.93,1.16-10.44v-2.23C97.6,40.16,100.55,37.13,102.91,33.67L102.91,33.67z"/>
</svg>
