<svg xmlns="http://www.w3.org/2000/svg" viewBox="0 0 8054.39 1142.15">
  <defs>
    <style>
      .cls-1 {
        fill: #fff;
      }
    </style>
  </defs>
  <g>
    <g>
      <g>
        <path class="cls-1" d="M2837.55,263.17c15.78-1.93,390.85-1.23,398.11.63-15,12.62-32.55,23.93-46,39.09-3.3,3.39-7,4.53-11.62,4.29-21.08-1.14-79.45,2.54-79.09,31.32,1,55.89-1.71,112.18,1.11,167.81,97.53-81.84,193.36-165.46,290.38-247.86,14.68-11.77,31.66-19.75,49-26.6,41.25-18,160.08-43.68,192-4.84-66.31,1.91-129.7,23-177.1,71.29C3381.92,361,3308.44,422,3236.73,485.42c23.39,10.22,43.59,22.88,58.06,43.93q60.36,80.85,120.59,161.83c116.55,139.69,211.67,366.89,425.62,352.54,9.73-.47,17.1,2.09,23.7,9.57,11.3,12.81,27.45,17.07,43.08,21.65,18.34-.24,35.36-12.89,48.74-24.65a20,20,0,0,1,13.05-5.82c37.13-3.38,77.15-9,107.18-33.05,10.59-9.22,16.31-20.3,16.31-34.84-.52-288.81,1.5-577.65-.13-866.45-5.28-48.08-77-58.6-115.77-62.75-9.75-.8-17.71-3.3-24.65-10.88-11.3-11.67-22.29-20-34.61-31.59,183.92-1.46,367.53.18,551.42-.6C4564.17,7,4657.68,43.57,4734,99.12c167.82,121,207.42,346.42,183.67,540.49-14.68,118.17-67.48,234.48-159.75,312-98.38,81.27-235.32,129.79-362.39,135q-335,.13-669.9-.07c-38.87,0-75.54-10.75-110.88-26.53-189.47-81.63-293-270.52-414.89-426-14.53-20.63-83.65-92.22-98.19-47.6-6.73,85.37-.5,171.88-2.84,257.61-.05,12.58,5.54,20,16.08,25,16.91,8,35,10.6,53.4,11,24.41.54,17.86-2.13,35.5,14.84a218.94,218.94,0,0,0,34.63,28.31H2842.05c10-13.37,22.75-23.38,33.75-35.79,4.41-4.7,9.3-6.62,15.7-7.23,21.95-3.3,68.87-3.44,71.4-32.37.3-168.55,0-337.14.1-505.7.82-30.43-46.6-32.39-68.69-34.83-7.72-.52-13.82-2.7-19.43-8.41C2863.09,286.79,2850.55,275.49,2837.55,263.17ZM4248.91,64.93c2,298.44-3.93,597.17,2.31,895.45,2.08,64.64,135.16,44.64,180.09,47.49,277.38-41.24,345-307.09,324.42-550.15-7.09-144.3-70.42-299.42-207.81-363.76C4455.18,48.12,4348.7,68.41,4248.91,64.93Z"/>
        <path class="cls-1" d="M6556.65,260.76q212.94,0,425.66,0c91.22,1.15,206.8,41.45,222.35,143.48,20.6,106.44-46.79,182.56-148,204.94,41.46,58.64,82.67,116.22,124.36,174.52,55.83,71.38,98.26,156.14,171.28,212,16.62,12.51,34.27,23.08,54.17,29.34,14.38,3.56,22.65,15.39,31.63,26.08l2.24-1.26c1.07-279.22,3.76-559.27-.92-838.55-12.46-49.83-137.19-41.5-179.56-42.43l40.69,79.41c-16.39,1.78-32.74-.59-49.23-.25-4.05-.06-6.55-1.28-8.58-5.21-9.22-17.82-23.05-31.76-39.24-43.18-33.51-23.63-70.67-36.68-112-36.71-3.8,0-6.93-.61-9.84-3.57-18.2-18.49-35.66-37.8-57.63-52.22l.42-2c247.05-.55,494.12-.1,741.17-.13,34.4.35,40.51-23.15,12.75-42.85,19.63-12.61,30-32.54,43.16-51.38,50.74,109.53,136.82,200,232.82,271.65-25.53,1-49.41,0-74.74.5a20,20,0,0,1-12.74-4.24c-32.86-23.89-66-47.42-101.49-67.31-26.74-15-54.94-27-83.86-37.16a81.14,81.14,0,0,0-25.47-4c-53.24,0-106.38-1.77-159.57-.06q-1.22,282.8.43,565.66c1.08,47.58,3.46,95.14,8.83,142.49,1.08,35.62,10.71,70.07,29.31,100.43,28.68,49,76.34,56.65,126.21,66.9,13.38,13.75,28.85,24.57,45.66,33.62.47.26.66,1,1.52,2.45-137.83,2-275.79.19-413.68.41-22.17-.07-43.07-7.51-63.73-15.36-175-68-265.26-244.17-372.29-386.59-21.35-26.35-46.58-61-83.78-61.63-14,.67-28,.11-42,.17-16.5-.52-24.83,12.07-23.77,27.61.44,89.27-1,178.57.62,267.82.24,5.86-1.7,9.58-7.48,12.4-45.72,22.18-66.45,73.56-75.41,120.74-1.86,9.38-1.82,19.18-2.11,28.8-.14,4.63-1.34,8.2-4.61,11.57-17.38,17.92-34.57,36-52.37,54.63-3.24-267.19,0-535.05-1.13-802.46,0-14.3-3.42-19.7-16.86-24.67-11-4.06-22.37-7-34.17-6.14-8.05.62-13.26-2.13-18.77-8.13C6584.6,287.29,6571.06,274.91,6556.65,260.76Zm252.4,58.34c.08,76.26.24,152.18.36,228.4,0,16.73,7.48,24.16,24.39,24.2,22,.07,44-.39,65.94.13,68,.5,144.92-39.54,150.26-114.13C7056.68,333.68,6904.58,311.92,6809.05,319.1Z"/>
        <path class="cls-1" d="M840,1018.44c17.9,14.31,38.07,23,58.19,32.32v29.87c-8,2.39-858.4,3.59-895.33,1.28-.13-.59-.57-1.49-.34-1.72,12-9.58,30.62-36.3,44.75-37.84,78.51-4.54,130.92-56.15,142.89-132.83C200.63,819.24,200.26,728.18,201,637.4c-2-156.88,7.43-315-12.17-471C176.43,93.87,122.46,44.24,48.11,41.93c-2.87-.45-6.43-.68-8.32-2.45C26.77,27.31,14.1,14.75,0,1,215.38-.84,430.73.32,646.13.78,750.46.7,861.31,64.82,886.54,171.2c36.93,134.26-24.47,270.58-162.86,309.37,97.32,21.35,198,67.45,241.9,162.78C1028.48,783.18,979.28,948.09,840,1018.44ZM345.17,524.73c0,100.32,0,200.3,0,300.58-.66,41.28,14.23,80.12,37.85,113.53,26.17,39.58,63.91,79.59,115.15,78.77C598.73,1016.4,686.61,1032,762,948.37a251.08,251.08,0,0,0,59.88-164.29c3-38.24-.48-75.73-13-112.14C739,482.63,504.7,530.6,345.17,524.73Zm0-60.17c100.51-5.75,207.61,17.72,302.29-24.26,85-35.21,119.06-129.88,104.54-216.55C723.49,33.11,491.75,48.11,345.18,51.41Z"/>
        <path class="cls-1" d="M1974.9,922c11-11.68,21.13-22.23,31-33,2.81-3.06,6-3.31,9.77-3.68,18.73-2.63,38.07-2,55.69-9.74-1.07-8.85-5.5-15.17-9.39-21.57q-31.11-51.24-62.56-102.28-35.57-57.88-71.29-115.66c-6.9-11.13-15.17-20.95-26.77-27.74-5.94-3.48-11.93-5.55-18.83-5.56-53-.08-105.22-.39-158.44-.27-32.07,56.76-61.15,115.21-93.23,172a19.24,19.24,0,0,1-7.61,7.34q-47.18,22.86-94.62,45.14c-10.85,4.57-19.33,9.49-31.3,12C1593,652.61,1696,470.81,1793,285.15h267.56c-12.89,12.44-21.6,27.3-35.64,36.27-24.88,5-40.5-4.93-66.92,13.59-18.74,12.28-18,37.11-6.33,54q144.48,237.19,290.6,473.37c7.85,12.58,24.34,16,37.57,19.7,17.3,4.82,39.06-1,54.36,8.48,14.75,10.73,29.5,20.42,44.65,30.79C2368.86,923.76,1988.59,924.41,1974.9,922ZM1803.71,453.73l-55.91,103.2C1881.57,561.33,1869.45,562.58,1803.71,453.73Z"/>
        <path class="cls-1" d="M5449.6,260.76c-2.51,59.21,14.68,111.37,48.34,159.36-97.71-14.51-52.7-13.33-113.81-66.64-59.08-48.82-106.78-42.42-177.48-43-46-1.18-40.47,46.36-40.51,76.68-.11,36,0,71.92-.29,107.87.07,19.53,9.14,46.23,32.53,45.79q54.48-.57,109,0c8.32.07,13.8-3.45,16.27-10.51,5.1-13.39,6.92-28.47,12.24-41.63,11.51-14.84,22.19-30,35-43.78,2.45,7.58,3.35,216.5,1.14,237.83-10.75-11.31-20.64-22.38-31.44-33.5-4.35-4.47-6.5-9.33-7.7-15.59-11.47-49.71-10.88-41.42-58.41-41.87q-35,0-70,0c-19.8,0-30.1,7.34-35.62,26.59-7.44,69.11-.11,139.84-2.08,209.47.64,18.61,13.4,39.77,33.74,38.56,50.89-2.59,105.24,9.38,153.07-12.42,38.72-15.16,67.65-44.31,92.63-76.63,3.37-4.06,6.6-7,11.73-8.34,17.38-4.49,34.69-9.25,53.33-14.26-2.24,15.64-4.62,30.23-13.85,43.64-25.42,37.9-27.28,82-32.35,126.64-181.91.36-377.87,2-563.68-.78,16-15.78,34.12-29.21,50.26-44.84,7.92-7.42,15.66-11.85,27.13-11.38,17.49.09,47-5.75,46.24-28.35-.35-167.54,1.11-335.08-.16-502.62-.06-11.55-3.61-17.13-14.45-21.21-12.53-4.73-25.49-7.89-39-7-5.84.39-9.94-1.57-13.9-5.87-12.85-13.93-26.09-27.5-39.71-41.77C5090.51,260,5272.23,261.14,5449.6,260.76Z"/>
        <path class="cls-1" d="M6588.39,420c-96.38-14.23-52.06-14.69-113.09-67.09-54.61-45.94-109.65-43.7-176.72-42.13-45-.92-40.89,43.53-40.51,76.38-.11,35.95,0,71.91-.3,107.86.08,19.52,9.12,46.24,32.51,45.82q54.48-.57,109,0c8.31.07,13.81-3.41,16.28-10.49,5.1-13.38,6.95-28.46,12.24-41.63,11.5-14.83,22.2-30,35-43.78,2.49,7.54,3.44,215.13,1.2,237.8-10.81-11.25-20.65-22.36-31.46-33.47-4.34-4.47-6.53-9.31-7.72-15.58-11.6-48-9-41.87-56.38-41.9q-36.49,0-73,0c-18.21,0-28.53,7-34.09,24.65-8.77,69.54-.34,141.17-2.65,211.38.65,18.6,13.38,39.79,33.71,38.59,50.89-2.59,105.24,9.38,153.08-12.4,38.73-15.16,67.64-44.32,92.64-76.63,3.37-4,6.57-7,11.72-8.36,17.38-4.48,34.69-9.24,52.74-14.09-.12,17.1-6.48,33.11-15.66,47.81C6563.05,839.46,6562.2,882.08,6557,925c-181.62.21-377.89,2-563.66-.79,15.9-15.84,34.11-29.21,50.22-44.86,7.92-7.41,15.65-12,27.12-11.37,17.59.07,46.89-5.7,46.3-28.34-.42-167.54,1.11-335.09-.18-502.63-.06-11.57-3.59-17.14-14.42-21.23-12.53-4.73-25.49-7.9-39-7-5.83.38-10-1.48-13.92-5.84-13.24-13.57-26.69-26.95-38.62-41.76l-1.49,1.48c174.18-5.56,354.39,0,530.48-1.92C6543.17,328,6552.84,362.7,6588.39,420Z"/>
        <path class="cls-1" d="M5482.51,934.11c42-55,92-114.14,81.9-187.26-.74-9.47-.12-19-.12-30.7,8.58,9.13,18,15.23,23.24,25.51,6.52,12.72,13.09,25.41,22.63,36.27,57.86,59.55,157.53,111.56,238.9,71.61,39.68-17.74,64.42-68.14,40.54-107.86-29.65-64.24-170.83-101.34-233.44-146.93-75.93-43-103-120.52-82.31-203.66,16.91-62.08,72-106.34,132.79-121.8,55.95-15.17,114.94-10,168,13.48,32.16,15.93,61,1.12,87.45-18.73,1.36,43.34-4.44,86.84,9.75,128.78,14.65,41.79,22.14,47.62,13.82,94.87-57.23-86.09-187.83-233.78-293-136.14-12.2,14.47-27.55,35.34-20.12,55.16,50.3,108.59,249.88,93.4,323.36,213.15,28.24,39.43,27.76,89.14,26.16,135.56-8,117.09-136.31,180-242.74,171.72-84.36-.31-166.68-65.39-245.84-7.93C5517.37,929.89,5502,931.17,5482.51,934.11Z"/>
        <path class="cls-1" d="M2881.78,475.44c-15.55-1.36-35,3.92-47-4.19-16.16-11.18-35.86-18.76-48.19-34.53-26-42.74-61.21-79.91-112.24-88.93C2547.79,312.72,2429.1,415,2397.78,533.52c-52.92,176.34,104.1,415.44,300.76,329,55.08-25.31,67.07-55.6,78.93-111.47.82-2.84,3.5-5.63,6.05-7.41,19.94-13.9,40-27.69,60.22-41.15,14.81-8.11,31.37-5.72,48.56-8.45-12.16,51.2-28,101-40.87,152-3.21,12.24-9.62,20.64-20.06,27-122.69,73.76-284.55,79.14-415.27,23.35C2097.31,744,2198,321.08,2537.51,286.76c104.2-10.6,219.44.28,304.11,67.35,7.27,6,11.11,12.81,12.56,22.6C2858.83,411.14,2869.14,443,2881.78,475.44Z"/>
        <path class="cls-1" d="M1388.61,261.9l1,2.39c-8.07,8.22-16,16.53-24.23,24.62-5.91,5.85-11.22,13.52-18.41,16.49s-16.36.86-24.64,1.37c-23.77,2.47-63.79,3.94-63.52,36.11,2,148.8-3,297.93,2.28,446.57,4.05,46.39,49.14,80.87,94.4,80.33,61-.63,122-.23,183-.21,36.57,1.14,69-15.93,99-35.12,19.26-12.43,34-29.74,48.5-47.14,5.27-6.32,10.92-11.3,19-13.73,41.65-12.89,88.49-24.78,129.71-3.76-16.12,9.23-32.12,15.33-48.63,23.41-48.81,23.82-61.24,83.74-100.54,117.94-11.22,9.26-23.63,14.44-38.35,14.41q-302.52-.26-605-.11V888.6c38.12-12.45,68.93-46.43,71.28-87.12,5.9-150.34,1.64-301.08,3.62-451.55,2.58-27-14.44-34.13-37.67-39.44-8.89-.29-14.42-5.21-20.09-11.19-11.1-12.24-24.09-23.2-34.85-35.51C1143.7,258.37,1267.8,263.73,1388.61,261.9Z"/>
      </g>
    </g>
  </g>
</svg>
